<svg width="24" height="24" viewBox="0 0 24 24" fill="none"
xmlns="http://www.w3.org/2000/svg">
<defs>
<linearGradient id="g" x1="3" y1="3" x2="21" y2="21" gradientUnits="userSpaceOnUse">
<stop stop-color="#00D4FF"/>
<stop offset="0.52" stop-color="#7C5CFF"/>
<stop offset="1" stop-color="#FF5C8A"/>
</linearGradient>
<filter id="glow" x="-20%" y="-20%" width="140%" height="140%">
<feGaussianBlur stdDeviation="1.2" result="blur"/>
<feColorMatrix in="blur" type="matrix" values="0 0 0 0 0.49 0 0 0 0 0.36 0 0 0 0 1 0 0 0 0.55 0"/>
<feMerge><feMergeNode/><feMergeNode in="SourceGraphic"/></feMerge>
</filter>
</defs>

<path d="M12 8.2A3.8 3.8 0 1 0 12 15.8A3.8 3.8 0 0 0 12 8.2Z" stroke="url(#g)" stroke-width="1.8" stroke-linecap="round" stroke-linejoin="round"/>
<path d="M4.8 13.6L3.8 12L4.8 10.4L6.6 10.1C6.9 9.4 7.1 8.9 7.6 8.4L7.1 6.7L8.7 5.7L10.2 6.5C10.8 6.3 11.4 6.2 12 6.2C12.6 6.2 13.2 6.3 13.8 6.5L15.3 5.7L16.9 6.7L16.4 8.4C16.9 8.9 17.1 9.4 17.4 10.1L19.2 10.4L20.2 12L19.2 13.6L17.4 13.9C17.1 14.6 16.9 15.1 16.4 15.6L16.9 17.3L15.3 18.3L13.8 17.5C13.2 17.7 12.6 17.8 12 17.8C11.4 17.8 10.8 17.7 10.2 17.5L8.7 18.3L7.1 17.3L7.6 15.6C7.1 15.1 6.9 14.6 6.6 13.9L4.8 13.6Z" stroke="url(#g)" stroke-width="1.8" stroke-linecap="round" stroke-linejoin="round"/>

</svg>
